<?xml version="1.0" encoding="UTF-8"?>
<svg id="_레이어_1" data-name="레이어 1" xmlns="http://www.w3.org/2000/svg" xmlns:xlink="http://www.w3.org/1999/xlink" viewBox="0 0 340.41 559.81">
  <defs>
    <style>
      .cls-1 {
        fill: #fff;
      }

      .cls-2 {
        clip-path: url(#clippath-2);
      }

      .cls-3 {
        fill: #040000;
      }

      .cls-4 {
        clip-path: url(#clippath-1);
      }

      .cls-5 {
        clip-path: url(#clippath);
      }

      .cls-6 {
        fill: none;
      }

      .cls-7 {
        clip-path: url(#clippath-3);
      }

      .cls-8 {
        fill: #201f1f;
      }
    </style>
    <clipPath id="clippath">
      <rect class="cls-6" x="0" y="0" width="340.41" height="559.81"/>
    </clipPath>
    <clipPath id="clippath-1">
      <rect class="cls-6" x=".57" y="43.12" width="18.21" height="91.99"/>
    </clipPath>
    <clipPath id="clippath-2">
      <rect class="cls-6" x="0" y="0" width="340.41" height="559.81"/>
    </clipPath>
    <clipPath id="clippath-3">
      <rect class="cls-6" x=".57" y="43.12" width="18.21" height="91.99"/>
    </clipPath>
  </defs>
  <g class="cls-5">
    <path class="cls-3" d="m338.11,30.23h-7.37c-7.37,0-13.47,5.88-15.89,32.19l-45.37,494.59h-56.54l-39.85-339.67-30.29,339.67h-56.55L24.88,30.23H2.42V2.94h93.61l39.98,342.05,22.68-251.35L148.55,2.94h96.98v27.29h-19l36.62,316.01,27.87-285.92c1.96-18.47-2.19-30.09-12.78-30.09h-9.33V2.94h69.21v27.29Zm2.3,2.94V0h-73.93v33.17h10.59c10.13,0,13.24,9.1,11.29,30.37l-25.56,259.89L229.29,33.17h18.65V0h-102.2l10.53,93.63-20.61,228.12L98.13,0H0v33.17h22.92l61.04,526.64h60.69l28.79-319.09,37.2,319.09h60.81l45.49-494.73c2.65-26.87,7.72-31.91,13.82-31.91h9.67Z"/>
    <path class="cls-3" d="m275.81,11.2v10.64h2.99c15.66,0,21.07,19.45,19.11,39.19l-34.43,351.98L218.23,21.83h20.27v-10.64h-82.14l9.24,81.17-28.91,320.63L90.26,11.2H9.67v10.64h21.19l61.38,526.64h44.11l36.04-398.59,46.53,398.59h44.22l44.8-488.72c2.53-27.01,11.52-37.93,21.65-37.93h1.5v-10.64h-55.28Z"/>
    <path class="cls-1" d="m331.09,21.83h-1.5c-10.13,0-19.11,10.92-21.65,37.93l-44.8,488.72h-44.22l-46.53-398.59-36.04,398.59h-44.11L30.86,21.83H9.67v-10.64h80.58l46.44,401.81,28.91-320.63-9.24-81.17h82.14v10.64h-20.27l45.26,391.17,34.43-351.98c1.96-19.74-3.46-39.19-19.12-39.19h-2.99v-10.64h55.28v10.64Zm7.03,8.4V2.94h-69.21v27.29h9.33c10.6,0,14.74,11.62,12.78,30.09l-27.87,285.92L226.52,30.23h19V2.94h-96.98l10.14,90.69-22.68,251.36L96.03,2.94H2.42v27.29h22.46l61.38,526.78h56.54l30.29-339.67,39.84,339.67h56.54l45.37-494.6c2.42-26.31,8.52-32.19,15.89-32.19h7.37Z"/>
  </g>
  <g class="cls-4">
    <path class="cls-8" d="m18.5,123.58l-7.52,4.05,2.19,1.99h5.32v5.49H.84v-5.49h2.07c1.49,0,3.08.03,4.36.08-1.16-.8-3.2-2.49-4.64-3.74l-1.79-1.55v-6.54l6.23,5.85,11.43-6.51v6.38Z"/>
    <path class="cls-8" d="m18.78,108.62c0,5.27-3.2,8.95-9.08,8.95s-9.13-3.74-9.13-9.01,3.2-8.95,9.08-8.95,9.13,3.74,9.13,9.01m-13.95,0c0,2.16,1.64,3.38,4.82,3.38s4.87-1.27,4.87-3.44-1.64-3.38-4.82-3.38-4.87,1.28-4.87,3.44"/>
  </g>
  <g class="cls-2">
    <path class="cls-8" d="m18.5,86.97l-5.95,3.16v2.16h5.95v5.29H.84v-8.67c0-4.55,1.56-7.57,5.75-7.57,2.65,0,4.29,1.36,5.17,3.49l6.74-3.88v6.02Zm-13.67,2.08v3.24h3.86v-3.16c0-1.75-.71-2.44-1.97-2.44-1.11,0-1.89.66-1.89,2.35"/>
  </g>
  <polygon class="cls-8" points="14.39 63.8 14.39 73.53 11.36 73.53 11.36 67.79 7.3 67.79 7.3 73.53 4.96 73.53 4.96 63.99 .84 63.99 .84 78.85 18.51 78.85 18.51 63.8 14.39 63.8"/>
  <g class="cls-7">
    <path class="cls-8" d="m18.5,48.94l-3.1,1.05v5.82l3.1,1.05v5.76L.84,55.6v-5.43l17.66-7.04v5.82Zm-8.15,2.72c-2.27.69-3.23,1-4.41,1.25,1.19.25,2.17.56,4.41,1.25l1.16.36v-3.21l-1.16.36Z"/>
  </g>
</svg>